<svg xmlns="http://www.w3.org/2000/svg" aria-label="opencode MEMnet logo" viewBox="0 0 800 200"><title>opencode MEMnet</title><desc>Memory network system for AI coding agents</desc><g transform="translate(35 20)"><circle cx="80" cy="80" r="70" fill="none" stroke="#0f172a" stroke-width=".5" opacity=".08"/><path fill="none" stroke="#0f172a" stroke-width="1.5" d="m130 80-25-43H55L30 80l25 43h50z" opacity=".25"/><circle cx="130" cy="80" r="6" fill="#0f172a"/><circle cx="105" cy="37" r="6" fill="#0f172a"/><circle cx="55" cy="37" r="6" fill="#0f172a"/><circle cx="30" cy="80" r="6" fill="#0f172a"/><circle cx="55" cy="123" r="6" fill="#0f172a"/><circle cx="105" cy="123" r="6" fill="#0f172a"/><circle cx="80" cy="80" r="12" fill="#0f172a"/><circle cx="80" cy="80" r="6" fill="#0d9488"/><path stroke="#0f172a" stroke-width="2" d="M80 80h50M80 80l25-43M80 80 55 37M80 80H30M80 80l-25 43M80 80l25 43"/></g><text x="195" y="82" fill="#64748b" font-family="system-ui, -apple-system, BlinkMacSystemFont, 'Segoe UI', Roboto, sans-serif" font-size="24" font-weight="300" letter-spacing="2">opencode</text><text x="195" y="152" fill="#0f172a" font-family="system-ui, -apple-system, BlinkMacSystemFont, 'Segoe UI', Roboto, sans-serif" font-size="84" font-weight="800" letter-spacing="-2">MEMnet</text><rect width="48" height="4" x="195" y="166" fill="#0d9488" rx="2"/></svg>