<svg xmlns="http://www.w3.org/2000/svg" viewBox="0 0 960 580" font-family="'Segoe UI', system-ui, -apple-system, sans-serif">
  <defs>
    <!-- Subtle drop shadow -->
    <filter id="shadow" x="-4%" y="-4%" width="108%" height="112%">
      <feDropShadow dx="0" dy="2" stdDeviation="4" flood-color="#0F172A" flood-opacity="0.12"/>
    </filter>
    <filter id="shadowLg" x="-6%" y="-6%" width="112%" height="118%">
      <feDropShadow dx="0" dy="4" stdDeviation="8" flood-color="#0F172A" flood-opacity="0.16"/>
    </filter>
    <filter id="glow" x="-10%" y="-10%" width="120%" height="120%">
      <feGaussianBlur stdDeviation="3" result="blur"/>
      <feMerge><feMergeNode in="blur"/><feMergeNode in="SourceGraphic"/></feMerge>
    </filter>

    <!-- Gradients -->
    <linearGradient id="gradTeal" x1="0" y1="0" x2="1" y2="1">
      <stop offset="0%" stop-color="#14B8A6"/>
      <stop offset="100%" stop-color="#0D9488"/>
    </linearGradient>
    <linearGradient id="gradTealTop" x1="0" y1="0" x2="1" y2="1">
      <stop offset="0%" stop-color="#2DD4BF"/>
      <stop offset="100%" stop-color="#14B8A6"/>
    </linearGradient>
    <linearGradient id="gradBlue" x1="0" y1="0" x2="1" y2="1">
      <stop offset="0%" stop-color="#2563EB"/>
      <stop offset="100%" stop-color="#1E40AF"/>
    </linearGradient>
    <linearGradient id="gradBlueTop" x1="0" y1="0" x2="1" y2="1">
      <stop offset="0%" stop-color="#3B82F6"/>
      <stop offset="100%" stop-color="#2563EB"/>
    </linearGradient>
    <linearGradient id="gradIndigo" x1="0" y1="0" x2="1" y2="1">
      <stop offset="0%" stop-color="#6366F1"/>
      <stop offset="100%" stop-color="#4338CA"/>
    </linearGradient>
    <linearGradient id="gradIndigoTop" x1="0" y1="0" x2="1" y2="1">
      <stop offset="0%" stop-color="#818CF8"/>
      <stop offset="100%" stop-color="#6366F1"/>
    </linearGradient>
    <linearGradient id="gradAmber" x1="0" y1="0" x2="1" y2="1">
      <stop offset="0%" stop-color="#F59E0B"/>
      <stop offset="100%" stop-color="#D97706"/>
    </linearGradient>
    <linearGradient id="gradAmberTop" x1="0" y1="0" x2="1" y2="1">
      <stop offset="0%" stop-color="#FBBF24"/>
      <stop offset="100%" stop-color="#F59E0B"/>
    </linearGradient>
    <linearGradient id="gradBg" x1="0" y1="0" x2="0" y2="1">
      <stop offset="0%" stop-color="#F8FAFC"/>
      <stop offset="100%" stop-color="#F1F5F9"/>
    </linearGradient>

    <!-- Arrow markers -->
    <marker id="arrowSolid" viewBox="0 0 10 7" refX="10" refY="3.5" markerWidth="8" markerHeight="6" orient="auto-start-reverse">
      <polygon points="0 0, 10 3.5, 0 7" fill="#64748B"/>
    </marker>
    <marker id="arrowDash" viewBox="0 0 10 7" refX="10" refY="3.5" markerWidth="8" markerHeight="6" orient="auto-start-reverse">
      <polygon points="0 0, 10 3.5, 0 7" fill="#94A3B8"/>
    </marker>
    <marker id="arrowTeal" viewBox="0 0 10 7" refX="10" refY="3.5" markerWidth="8" markerHeight="6" orient="auto-start-reverse">
      <polygon points="0 0, 10 3.5, 0 7" fill="#0D9488"/>
    </marker>
    <marker id="arrowBlue" viewBox="0 0 10 7" refX="10" refY="3.5" markerWidth="8" markerHeight="6" orient="auto-start-reverse">
      <polygon points="0 0, 10 3.5, 0 7" fill="#1E40AF"/>
    </marker>
    <marker id="arrowAmber" viewBox="0 0 10 7" refX="10" refY="3.5" markerWidth="8" markerHeight="6" orient="auto-start-reverse">
      <polygon points="0 0, 10 3.5, 0 7" fill="#D97706"/>
    </marker>
  </defs>

  <!-- Background -->
  <rect width="960" height="580" fill="url(#gradBg)" rx="12"/>

  <!-- Subtle grid pattern -->
  <g opacity="0.04">
    <line x1="0" y1="60" x2="960" y2="60" stroke="#334155" stroke-width="0.5"/>
    <line x1="0" y1="120" x2="960" y2="120" stroke="#334155" stroke-width="0.5"/>
    <line x1="0" y1="180" x2="960" y2="180" stroke="#334155" stroke-width="0.5"/>
    <line x1="0" y1="240" x2="960" y2="240" stroke="#334155" stroke-width="0.5"/>
    <line x1="0" y1="300" x2="960" y2="300" stroke="#334155" stroke-width="0.5"/>
    <line x1="0" y1="360" x2="960" y2="360" stroke="#334155" stroke-width="0.5"/>
    <line x1="0" y1="420" x2="960" y2="420" stroke="#334155" stroke-width="0.5"/>
    <line x1="0" y1="480" x2="960" y2="480" stroke="#334155" stroke-width="0.5"/>
    <line x1="0" y1="540" x2="960" y2="540" stroke="#334155" stroke-width="0.5"/>
  </g>

  <!-- Title -->
  <text x="480" y="32" text-anchor="middle" font-size="16" font-weight="700" fill="#0F172A" letter-spacing="0.5">opencode-memnet Architecture</text>
  <text x="480" y="50" text-anchor="middle" font-size="10" fill="#64748B" letter-spacing="0.3">Isometric Component Diagram</text>

  <!-- ============================================================= -->
  <!-- 1. OPENCODE PLUGIN (Left) — Isometric Box                      -->
  <!-- ============================================================= -->
  <g filter="url(#shadowLg)" transform="translate(30, 90)">
    <!-- Isometric box: front face -->
    <polygon points="0,200 200,200 200,60 0,60" fill="url(#gradTeal)" stroke="#0F766E" stroke-width="0.5"/>
    <!-- Top face (parallelogram) -->
    <polygon points="0,60 200,60 230,40 30,40" fill="url(#gradTealTop)" stroke="#0F766E" stroke-width="0.5"/>
    <!-- Right face -->
    <polygon points="200,60 230,40 230,180 200,200" fill="#0F766E" opacity="0.5" stroke="#0F766E" stroke-width="0.5"/>

    <!-- Plugin icon: chat bubble -->
    <g transform="translate(78, 70)">
      <rect x="0" y="0" width="44" height="32" rx="6" fill="white" opacity="0.25"/>
      <polygon points="10,32 18,40 26,32" fill="white" opacity="0.25"/>
      <line x1="10" y1="10" x2="34" y2="10" stroke="white" stroke-width="1.5" opacity="0.7"/>
      <line x1="10" y1="16" x2="28" y2="16" stroke="white" stroke-width="1.5" opacity="0.7"/>
      <line x1="10" y1="22" x2="22" y2="22" stroke="white" stroke-width="1.5" opacity="0.7"/>
    </g>

    <!-- Title -->
    <text x="100" y="128" text-anchor="middle" font-size="13" font-weight="700" fill="white">OpenCode</text>
    <text x="100" y="144" text-anchor="middle" font-size="13" font-weight="700" fill="white">Plugin</text>
    <text x="100" y="162" text-anchor="middle" font-size="8" fill="white" opacity="0.8">Client-Side Extension</text>

    <!-- Separator -->
    <line x1="20" y1="172" x2="180" y2="172" stroke="white" stroke-width="0.5" opacity="0.3"/>

    <!-- Hooks list -->
    <text x="20" y="186" font-size="7.5" fill="white" opacity="0.85">chat.message</text>
    <text x="20" y="196" font-size="7.5" fill="white" opacity="0.85">session.idle</text>

    <!-- Config file badge -->
    <g transform="translate(42, 136)">
      <rect x="0" y="0" width="118" height="22" rx="4" fill="white" opacity="0.15" stroke="white" stroke-width="0.5" stroke-opacity="0.3"/>
      <text x="59" y="14" text-anchor="middle" font-size="7" fill="white" opacity="0.9">.opencode/memnet.jsonc</text>
    </g>
  </g>

  <!-- ============================================================= -->
  <!-- 2. OPENCODE-MEMNET SERVER (Center) — Large Isometric Box       -->
  <!-- ============================================================= -->
  <g filter="url(#shadowLg)" transform="translate(330, 80)">
    <!-- Isometric box: front face -->
    <polygon points="0,310 300,310 300,60 0,60" fill="url(#gradBlue)" stroke="#1E3A8A" stroke-width="0.5"/>
    <!-- Top face -->
    <polygon points="0,60 300,60 335,35 35,35" fill="url(#gradBlueTop)" stroke="#1E3A8A" stroke-width="0.5"/>
    <!-- Right face -->
    <polygon points="300,60 335,35 335,285 300,310" fill="#1E3A8A" opacity="0.4" stroke="#1E3A8A" stroke-width="0.5"/>

    <!-- Server icon: stack -->
    <g transform="translate(118, 50)">
      <rect x="0" y="0" width="64" height="14" rx="3" fill="white" opacity="0.2"/>
      <rect x="0" y="18" width="64" height="14" rx="3" fill="white" opacity="0.2"/>
      <rect x="0" y="36" width="64" height="14" rx="3" fill="white" opacity="0.2"/>
      <circle cx="52" cy="7" r="2.5" fill="#4ADE80" opacity="0.8"/>
      <circle cx="52" cy="25" r="2.5" fill="#4ADE80" opacity="0.8"/>
      <circle cx="52" cy="43" r="2.5" fill="#FBBF24" opacity="0.8"/>
    </g>

    <!-- Title -->
    <text x="150" y="118" text-anchor="middle" font-size="15" font-weight="700" fill="white">opencode-memnet</text>
    <text x="150" y="136" text-anchor="middle" font-size="15" font-weight="700" fill="white">Server</text>
    <text x="150" y="155" text-anchor="middle" font-size="9" fill="white" opacity="0.8">REST API + WebUI</text>

    <!-- Separator -->
    <line x1="20" y1="165" x2="280" y2="165" stroke="white" stroke-width="0.5" opacity="0.25"/>

    <!-- Service blocks — row 1 -->
    <g>
      <rect x="20" y="175" width="125" height="36" rx="5" fill="white" opacity="0.12" stroke="white" stroke-width="0.5" stroke-opacity="0.2"/>
      <text x="82" y="190" text-anchor="middle" font-size="8" font-weight="600" fill="white">Embedding</text>
      <text x="82" y="202" text-anchor="middle" font-size="7" fill="white" opacity="0.7">Service</text>
    </g>
    <g>
      <rect x="155" y="175" width="125" height="36" rx="5" fill="white" opacity="0.12" stroke="white" stroke-width="0.5" stroke-opacity="0.2"/>
      <text x="217" y="190" text-anchor="middle" font-size="8" font-weight="600" fill="white">AI Chat</text>
      <text x="217" y="202" text-anchor="middle" font-size="7" fill="white" opacity="0.7">Service</text>
    </g>

    <!-- Service blocks — row 2 -->
    <g>
      <rect x="20" y="220" width="125" height="36" rx="5" fill="white" opacity="0.12" stroke="white" stroke-width="0.5" stroke-opacity="0.2"/>
      <text x="82" y="235" text-anchor="middle" font-size="8" font-weight="600" fill="white">Auto-Capture</text>
      <text x="82" y="247" text-anchor="middle" font-size="7" fill="white" opacity="0.7">Worker</text>
    </g>
    <g>
      <rect x="155" y="220" width="125" height="36" rx="5" fill="white" opacity="0.12" stroke="white" stroke-width="0.5" stroke-opacity="0.2"/>
      <text x="217" y="235" text-anchor="middle" font-size="8" font-weight="600" fill="white">Tag Migration</text>
      <text x="217" y="247" text-anchor="middle" font-size="7" fill="white" opacity="0.7">Service</text>
    </g>

    <!-- Service blocks — row 3 -->
    <g>
      <rect x="20" y="265" width="125" height="36" rx="5" fill="white" opacity="0.12" stroke="white" stroke-width="0.5" stroke-opacity="0.2"/>
      <text x="82" y="280" text-anchor="middle" font-size="8" font-weight="600" fill="white">User Profile</text>
      <text x="82" y="292" text-anchor="middle" font-size="7" fill="white" opacity="0.7">Learning</text>
    </g>
    <g>
      <rect x="155" y="265" width="125" height="36" rx="5" fill="white" opacity="0.12" stroke="white" stroke-width="0.5" stroke-opacity="0.2"/>
      <text x="217" y="280" text-anchor="middle" font-size="8" font-weight="600" fill="white">Background</text>
      <text x="217" y="292" text-anchor="middle" font-size="7" fill="white" opacity="0.7">Workers</text>
    </g>
  </g>

  <!-- ============================================================= -->
  <!-- 3. POSTGRESQL + PGVECTOR (Bottom-Right) — Cylinder Shape       -->
  <!-- ============================================================= -->
  <g filter="url(#shadow)" transform="translate(720, 340)">
    <!-- Cylinder body -->
    <rect x="0" y="18" width="160" height="130" fill="url(#gradIndigo)" stroke="#3730A3" stroke-width="0.5"/>
    <!-- Bottom ellipse -->
    <ellipse cx="80" cy="148" rx="80" ry="18" fill="#4338CA" stroke="#3730A3" stroke-width="0.5"/>
    <!-- Top ellipse -->
    <ellipse cx="80" cy="18" rx="80" ry="18" fill="url(#gradIndigoTop)" stroke="#3730A3" stroke-width="0.5"/>

    <!-- Database icon -->
    <g transform="translate(60, 40)">
      <ellipse cx="20" cy="2" rx="16" ry="5" fill="none" stroke="white" stroke-width="1.2" opacity="0.5"/>
      <line x1="4" y1="2" x2="4" y2="24" stroke="white" stroke-width="1.2" opacity="0.5"/>
      <line x1="36" y1="2" x2="36" y2="24" stroke="white" stroke-width="1.2" opacity="0.5"/>
      <ellipse cx="20" cy="24" rx="16" ry="5" fill="none" stroke="white" stroke-width="1.2" opacity="0.5"/>
    </g>

    <!-- Title -->
    <text x="80" y="88" text-anchor="middle" font-size="12" font-weight="700" fill="white">PostgreSQL</text>
    <text x="80" y="103" text-anchor="middle" font-size="11" font-weight="600" fill="white" opacity="0.9">+ pgvector</text>

    <!-- Table list -->
    <text x="80" y="124" text-anchor="middle" font-size="6.5" fill="white" opacity="0.75">memories · user_profiles</text>
    <text x="80" y="134" text-anchor="middle" font-size="6.5" fill="white" opacity="0.75">ai_sessions · ai_messages</text>
    <text x="80" y="144" text-anchor="middle" font-size="6.5" fill="white" opacity="0.75">user_prompts · embedding_config</text>
  </g>

  <!-- ============================================================= -->
  <!-- 4. EXTERNAL APIs (Top-Right) — Cloud Shape                     -->
  <!-- ============================================================= -->
  <g filter="url(#shadow)" transform="translate(710, 80)">
    <!-- Cloud shape made of circles -->
    <g>
      <circle cx="60" cy="55" r="50" fill="url(#gradAmber)" stroke="#B45309" stroke-width="0.5"/>
      <circle cx="110" cy="45" r="45" fill="url(#gradAmber)" stroke="#B45309" stroke-width="0.5"/>
      <circle cx="155" cy="55" r="40" fill="url(#gradAmber)" stroke="#B45309" stroke-width="0.5"/>
      <circle cx="30" cy="60" r="35" fill="url(#gradAmber)" stroke="#B45309" stroke-width="0.5"/>
      <!-- Bottom edge -->
      <rect x="-5" y="55" width="195" height="55" rx="0" fill="url(#gradAmber)" stroke="#B45309" stroke-width="0"/>
      <rect x="-5" y="55" width="195" height="60" rx="8" fill="url(#gradAmber)" stroke="#B45309" stroke-width="0.5"/>
      <!-- Overlay circles to smooth top -->
      <circle cx="60" cy="55" r="50" fill="url(#gradAmber)" stroke="#B45309" stroke-width="0.5"/>
      <circle cx="110" cy="45" r="45" fill="url(#gradAmber)" stroke="#B45309" stroke-width="0.5"/>
      <circle cx="155" cy="55" r="40" fill="url(#gradAmber)" stroke="#B45309" stroke-width="0.5"/>
      <circle cx="30" cy="60" r="35" fill="url(#gradAmber)" stroke="#B45309" stroke-width="0.5"/>
      <!-- Clean bottom -->
      <rect x="-5" y="70" width="195" height="45" rx="0" fill="url(#gradAmber)"/>
      <rect x="10" y="60" width="170" height="55" rx="6" fill="url(#gradAmber)" stroke="#B45309" stroke-width="0.5"/>
    </g>

    <!-- Cloud icon -->
    <g transform="translate(72, 68)">
      <path d="M10,18 Q0,18 0,12 Q0,6 8,6 Q10,0 18,0 Q26,0 28,6 Q36,6 36,12 Q36,18 26,18 Z" fill="white" opacity="0.25"/>
    </g>

    <!-- Title -->
    <text x="93" y="98" text-anchor="middle" font-size="12" font-weight="700" fill="white">External APIs</text>

    <!-- API list -->
    <text x="93" y="114" text-anchor="middle" font-size="7.5" fill="white" opacity="0.9">Embedding API</text>
    <text x="93" y="126" text-anchor="middle" font-size="6.5" fill="white" opacity="0.7">text-embedding-3-small</text>
    <line x1="40" y1="131" x2="146" y2="131" stroke="white" stroke-width="0.4" opacity="0.3"/>
    <text x="93" y="142" text-anchor="middle" font-size="7.5" fill="white" opacity="0.9">Chat Completions API</text>
    <text x="93" y="154" text-anchor="middle" font-size="6.5" fill="white" opacity="0.7">auto-capture · profile learning</text>
  </g>

  <!-- ============================================================= -->
  <!-- DATA FLOW ARROWS                                               -->
  <!-- ============================================================= -->

  <!-- Plugin ↔ Server (HTTP/REST) — bidirectional -->
  <line x1="260" y1="225" x2="328" y2="225" stroke="#0D9488" stroke-width="2.5" marker-start="url(#arrowTeal)" marker-end="url(#arrowBlue)" filter="url(#glow)"/>
  <!-- Arrow label -->
  <rect x="265" y="205" width="65" height="16" rx="3" fill="#F0FDF4" stroke="#0D9488" stroke-width="0.5" opacity="0.9"/>
  <text x="297" y="216" text-anchor="middle" font-size="7" font-weight="600" fill="#0F766E">HTTP/REST</text>

  <!-- Plugin bottom hooks arrow -->
  <line x1="260" y1="260" x2="328" y2="260" stroke="#0D9488" stroke-width="1.5" stroke-dasharray="4,3" marker-end="url(#arrowTeal)"/>
  <text x="294" y="275" text-anchor="middle" font-size="6.5" fill="#64748B">tool.memory</text>

  <!-- Server → Embedding API (upward right) -->
  <line x1="665" y1="170" x2="706" y2="150" stroke="#D97706" stroke-width="2" stroke-dasharray="6,3" marker-end="url(#arrowAmber)"/>
  <text x="700" y="148" font-size="6.5" fill="#92400E" transform="rotate(-12, 700, 148)">embed</text>

  <!-- Server → Chat API (upward right) -->
  <line x1="665" y1="210" x2="706" y2="195" stroke="#D97706" stroke-width="2" stroke-dasharray="6,3" marker-end="url(#arrowAmber)"/>
  <text x="702" y="192" font-size="6.5" fill="#92400E" transform="rotate(-10, 702, 192)">chat</text>

  <!-- Server → PostgreSQL (downward right) -->
  <path d="M 630,390 Q 670,420 718,430" stroke="#4338CA" stroke-width="2.5" fill="none" marker-end="url(#arrowBlue)" filter="url(#glow)"/>
  <rect x="636" y="406" width="52" height="14" rx="3" fill="#EEF2FF" stroke="#4338CA" stroke-width="0.5" opacity="0.9"/>
  <text x="662" y="416" text-anchor="middle" font-size="7" font-weight="600" fill="#3730A3">read/write</text>

  <!-- ============================================================= -->
  <!-- LEGEND (bottom-left)                                           -->
  <!-- ============================================================= -->
  <g transform="translate(30, 490)">
    <rect x="0" y="0" width="260" height="75" rx="8" fill="white" stroke="#E2E8F0" stroke-width="1" filter="url(#shadow)"/>
    <text x="12" y="16" font-size="8" font-weight="700" fill="#334155" letter-spacing="0.5">LEGEND</text>

    <line x1="12" y1="30" x2="42" y2="30" stroke="#0D9488" stroke-width="2"/>
    <circle cx="42" cy="30" r="2" fill="#0D9488"/>
    <text x="50" y="33" font-size="7" fill="#475569">Plugin ↔ Server (REST)</text>

    <line x1="12" y1="45" x2="42" y2="45" stroke="#D97706" stroke-width="2" stroke-dasharray="6,3"/>
    <circle cx="42" cy="45" r="2" fill="#D97706"/>
    <text x="50" y="48" font-size="7" fill="#475569">Server → External API (async)</text>

    <line x1="12" y1="60" x2="42" y2="60" stroke="#4338CA" stroke-width="2.5"/>
    <circle cx="42" cy="60" r="2" fill="#4338CA"/>
    <text x="50" y="63" font-size="7" fill="#475569">Server → Database (read/write)</text>

    <!-- Color keys -->
    <rect x="170" y="24" width="10" height="10" rx="2" fill="url(#gradTeal)"/>
    <text x="184" y="33" font-size="7" fill="#475569">Plugin</text>
    <rect x="170" y="38" width="10" height="10" rx="2" fill="url(#gradBlue)"/>
    <text x="184" y="47" font-size="7" fill="#475569">Server</text>
    <rect x="170" y="52" width="10" height="10" rx="2" fill="url(#gradIndigo)"/>
    <text x="184" y="61" font-size="7" fill="#475569">Database</text>
    <rect x="216" y="24" width="10" height="10" rx="2" fill="url(#gradAmber)"/>
    <text x="230" y="33" font-size="7" fill="#475569">APIs</text>
  </g>

  <!-- ============================================================= -->
  <!-- ANNOTATION LABELS                                              -->
  <!-- ============================================================= -->

  <!-- Plugin annotation -->
  <g transform="translate(32, 330)">
    <rect x="0" y="0" width="196" height="60" rx="6" fill="white" stroke="#99F6E4" stroke-width="1" filter="url(#shadow)"/>
    <text x="10" y="15" font-size="7" font-weight="600" fill="#0F766E">Plugin Responsibilities:</text>
    <text x="10" y="27" font-size="6.5" fill="#64748B">• Tags memories by project/user</text>
    <text x="10" y="37" font-size="6.5" fill="#64748B">• Injects relevant memories into context</text>
    <text x="10" y="47" font-size="6.5" fill="#64748B">• Reads config from .opencode/memnet.jsonc</text>
  </g>

  <!-- Server annotation -->
  <g transform="translate(330, 410)">
    <rect x="0" y="0" width="190" height="36" rx="6" fill="white" stroke="#BFDBFE" stroke-width="1" filter="url(#shadow)"/>
    <text x="10" y="14" font-size="7" font-weight="600" fill="#1E40AF">Server Endpoints:</text>
    <text x="10" y="26" font-size="6.5" fill="#64748B">POST /memories · GET /search · GET /webui</text>
  </g>

  <!-- Version / footer -->
  <text x="480" y="570" text-anchor="middle" font-size="7" fill="#94A3B8">opencode-memnet v1.0 · Isometric Architecture Overview</text>
</svg>